<?xml version="1.0" encoding="UTF-8" standalone="no"?>
<!DOCTYPE svg PUBLIC "-//W3C//DTD SVG 1.1//EN"
 "http://www.w3.org/Graphics/SVG/1.1/DTD/svg11.dtd">
<!-- Generated by graphviz version 2.47.3 (20210619.1520)
 -->
<!-- Title: dependencies Pages: 1 -->
<svg width="354pt" height="174pt"
 viewBox="0.00 0.00 354.00 173.80" xmlns="http://www.w3.org/2000/svg" xmlns:xlink="http://www.w3.org/1999/xlink">
<g id="graph0" class="graph" transform="scale(1 1) rotate(0) translate(4 169.8)">
<title>dependencies</title>
<polygon fill="white" stroke="transparent" points="-4,4 -4,-169.8 350,-169.8 350,4 -4,4"/>
<text text-anchor="middle" x="173" y="-8.2" font-family="sans-serif" font-size="14.00">dependencies</text>
<g id="clust1" class="cluster">
<title>cluster_CouponsPageModule</title>
<polygon fill="none" stroke="black" stroke-dasharray="1,5" points="8,-32.8 8,-157.8 338,-157.8 338,-32.8 8,-32.8"/>
</g>
<g id="clust2" class="cluster">
<title>cluster_CouponsPageModule_declarations</title>
<polygon fill="none" stroke="black" points="222,-40.8 222,-92.8 330,-92.8 330,-40.8 222,-40.8"/>
</g>
<g id="clust4" class="cluster">
<title>cluster_CouponsPageModule_imports</title>
<polygon fill="none" stroke="black" points="16,-40.8 16,-92.8 214,-92.8 214,-40.8 16,-40.8"/>
</g>
<!-- CouponsPage -->
<g id="node1" class="node">
<title>CouponsPage</title>
<polygon fill="#ffffb3" stroke="black" points="322.49,-84.8 229.51,-84.8 229.51,-48.8 322.49,-48.8 322.49,-84.8"/>
<text text-anchor="middle" x="276" y="-62.6" font-family="Times,serif" font-size="14.00">CouponsPage</text>
</g>
<!-- CouponsPageModule -->
<g id="node2" class="node">
<title>CouponsPageModule</title>
<polygon fill="#8dd3c7" stroke="black" points="256.04,-149.8 253.04,-153.8 232.04,-153.8 229.04,-149.8 119.96,-149.8 119.96,-113.8 256.04,-113.8 256.04,-149.8"/>
<text text-anchor="middle" x="188" y="-127.6" font-family="Times,serif" font-size="14.00">CouponsPageModule</text>
</g>
<!-- CouponsPage&#45;&gt;CouponsPageModule -->
<g id="edge1" class="edge">
<title>CouponsPage&#45;&gt;CouponsPageModule</title>
<path fill="none" stroke="black" d="M242.89,-84.91C242.89,-84.91 242.89,-103.79 242.89,-103.79"/>
<polygon fill="black" stroke="black" points="239.39,-103.79 242.89,-113.79 246.39,-103.79 239.39,-103.79"/>
</g>
<!-- CouponsPageRoutingModule -->
<g id="node3" class="node">
<title>CouponsPageRoutingModule</title>
<polygon fill="#8dd3c7" stroke="black" points="205.66,-84.8 202.66,-88.8 181.66,-88.8 178.66,-84.8 24.34,-84.8 24.34,-48.8 205.66,-48.8 205.66,-84.8"/>
<text text-anchor="middle" x="115" y="-62.6" font-family="Times,serif" font-size="14.00">CouponsPageRoutingModule</text>
</g>
<!-- CouponsPageRoutingModule&#45;&gt;CouponsPageModule -->
<g id="edge2" class="edge">
<title>CouponsPageRoutingModule&#45;&gt;CouponsPageModule</title>
<path fill="none" stroke="black" d="M162.78,-84.91C162.78,-84.91 162.78,-103.79 162.78,-103.79"/>
<polygon fill="black" stroke="black" points="159.28,-103.79 162.78,-113.79 166.28,-103.79 159.28,-103.79"/>
</g>
</g>
</svg>
