<?xml version="1.0" encoding="UTF-8" standalone="no"?>
<!DOCTYPE svg PUBLIC "-//W3C//DTD SVG 1.1//EN"
 "http://www.w3.org/Graphics/SVG/1.1/DTD/svg11.dtd">
<!-- Generated by graphviz version 2.47.3 (20210619.1520)
 -->
<!-- Title: dependencies Pages: 1 -->
<svg width="328pt" height="174pt"
 viewBox="0.00 0.00 328.00 173.80" xmlns="http://www.w3.org/2000/svg" xmlns:xlink="http://www.w3.org/1999/xlink">
<g id="graph0" class="graph" transform="scale(1 1) rotate(0) translate(4 169.8)">
<title>dependencies</title>
<polygon fill="white" stroke="transparent" points="-4,4 -4,-169.8 324,-169.8 324,4 -4,4"/>
<text text-anchor="middle" x="160" y="-8.2" font-family="sans-serif" font-size="14.00">dependencies</text>
<g id="clust1" class="cluster">
<title>cluster_ModalPageModule</title>
<polygon fill="none" stroke="black" stroke-dasharray="1,5" points="8,-32.8 8,-157.8 312,-157.8 312,-32.8 8,-32.8"/>
</g>
<g id="clust2" class="cluster">
<title>cluster_ModalPageModule_declarations</title>
<polygon fill="none" stroke="black" points="208,-40.8 208,-92.8 304,-92.8 304,-40.8 208,-40.8"/>
</g>
<g id="clust4" class="cluster">
<title>cluster_ModalPageModule_imports</title>
<polygon fill="none" stroke="black" points="16,-40.8 16,-92.8 200,-92.8 200,-40.8 16,-40.8"/>
</g>
<!-- ModalPage -->
<g id="node1" class="node">
<title>ModalPage</title>
<polygon fill="#ffffb3" stroke="black" points="295.76,-84.8 216.24,-84.8 216.24,-48.8 295.76,-48.8 295.76,-84.8"/>
<text text-anchor="middle" x="256" y="-62.6" font-family="Times,serif" font-size="14.00">ModalPage</text>
</g>
<!-- ModalPageModule -->
<g id="node2" class="node">
<title>ModalPageModule</title>
<polygon fill="#8dd3c7" stroke="black" points="236.81,-149.8 233.81,-153.8 212.81,-153.8 209.81,-149.8 113.19,-149.8 113.19,-113.8 236.81,-113.8 236.81,-149.8"/>
<text text-anchor="middle" x="175" y="-127.6" font-family="Times,serif" font-size="14.00">ModalPageModule</text>
</g>
<!-- ModalPage&#45;&gt;ModalPageModule -->
<g id="edge1" class="edge">
<title>ModalPage&#45;&gt;ModalPageModule</title>
<path fill="none" stroke="black" d="M226.39,-84.91C226.39,-84.91 226.39,-103.79 226.39,-103.79"/>
<polygon fill="black" stroke="black" points="222.89,-103.79 226.39,-113.79 229.89,-103.79 222.89,-103.79"/>
</g>
<!-- ModalPageRoutingModule -->
<g id="node3" class="node">
<title>ModalPageRoutingModule</title>
<polygon fill="#8dd3c7" stroke="black" points="192.43,-84.8 189.43,-88.8 168.43,-88.8 165.43,-84.8 23.57,-84.8 23.57,-48.8 192.43,-48.8 192.43,-84.8"/>
<text text-anchor="middle" x="108" y="-62.6" font-family="Times,serif" font-size="14.00">ModalPageRoutingModule</text>
</g>
<!-- ModalPageRoutingModule&#45;&gt;ModalPageModule -->
<g id="edge2" class="edge">
<title>ModalPageRoutingModule&#45;&gt;ModalPageModule</title>
<path fill="none" stroke="black" d="M152.78,-84.91C152.78,-84.91 152.78,-103.79 152.78,-103.79"/>
<polygon fill="black" stroke="black" points="149.28,-103.79 152.78,-113.79 156.28,-103.79 149.28,-103.79"/>
</g>
</g>
</svg>
