<?xml version="1.0" encoding="UTF-8" standalone="no"?>
<!DOCTYPE svg PUBLIC "-//W3C//DTD SVG 1.1//EN"
 "http://www.w3.org/Graphics/SVG/1.1/DTD/svg11.dtd">
<!-- Generated by graphviz version 2.47.3 (20210619.1520)
 -->
<!-- Title: dependencies Pages: 1 -->
<svg width="1388pt" height="174pt"
 viewBox="0.00 0.00 1388.00 173.80" xmlns="http://www.w3.org/2000/svg" xmlns:xlink="http://www.w3.org/1999/xlink">
<g id="graph0" class="graph" transform="scale(1 1) rotate(0) translate(4 169.8)">
<title>dependencies</title>
<polygon fill="white" stroke="transparent" points="-4,4 -4,-169.8 1384,-169.8 1384,4 -4,4"/>
<text text-anchor="middle" x="690" y="-8.2" font-family="sans-serif" font-size="14.00">dependencies</text>
<g id="clust1" class="cluster">
<title>cluster_Tab2PageModule</title>
<polygon fill="none" stroke="black" stroke-dasharray="1,5" points="8,-32.8 8,-157.8 1372,-157.8 1372,-32.8 8,-32.8"/>
</g>
<g id="clust2" class="cluster">
<title>cluster_Tab2PageModule_declarations</title>
<polygon fill="none" stroke="black" points="200,-40.8 200,-92.8 1364,-92.8 1364,-40.8 200,-40.8"/>
</g>
<g id="clust10" class="cluster">
<title>cluster_Tab2PageModule_imports</title>
<polygon fill="none" stroke="black" points="16,-40.8 16,-92.8 192,-92.8 192,-40.8 16,-40.8"/>
</g>
<!-- AboutC48Component -->
<g id="node1" class="node">
<title>AboutC48Component</title>
<polygon fill="#ffffb3" stroke="black" points="1355.67,-84.8 1216.33,-84.8 1216.33,-48.8 1355.67,-48.8 1355.67,-84.8"/>
<text text-anchor="middle" x="1286" y="-62.6" font-family="Times,serif" font-size="14.00">AboutC48Component</text>
</g>
<!-- Tab2PageModule -->
<g id="node8" class="node">
<title>Tab2PageModule</title>
<polygon fill="#8dd3c7" stroke="black" points="707.53,-149.8 704.53,-153.8 683.53,-153.8 680.53,-149.8 592.47,-149.8 592.47,-113.8 707.53,-113.8 707.53,-149.8"/>
<text text-anchor="middle" x="650" y="-127.6" font-family="Times,serif" font-size="14.00">Tab2PageModule</text>
</g>
<!-- AboutC48Component&#45;&gt;Tab2PageModule -->
<g id="edge1" class="edge">
<title>AboutC48Component&#45;&gt;Tab2PageModule</title>
<path fill="none" stroke="black" d="M1286,-85.09C1286,-107.01 1286,-140.8 1286,-140.8 1286,-140.8 717.56,-140.8 717.56,-140.8"/>
<polygon fill="black" stroke="black" points="717.56,-137.3 707.56,-140.8 717.56,-144.3 717.56,-137.3"/>
</g>
<!-- AboutKaffeKildenComponent -->
<g id="node2" class="node">
<title>AboutKaffeKildenComponent</title>
<polygon fill="#ffffb3" stroke="black" points="1198.29,-84.8 1011.71,-84.8 1011.71,-48.8 1198.29,-48.8 1198.29,-84.8"/>
<text text-anchor="middle" x="1105" y="-62.6" font-family="Times,serif" font-size="14.00">AboutKaffeKildenComponent</text>
</g>
<!-- AboutKaffeKildenComponent&#45;&gt;Tab2PageModule -->
<g id="edge2" class="edge">
<title>AboutKaffeKildenComponent&#45;&gt;Tab2PageModule</title>
<path fill="none" stroke="black" d="M1105,-84.91C1105,-104.14 1105,-131.8 1105,-131.8 1105,-131.8 717.63,-131.8 717.63,-131.8"/>
<polygon fill="black" stroke="black" points="717.63,-128.3 707.63,-131.8 717.63,-135.3 717.63,-128.3"/>
</g>
<!-- AboutKornComponent -->
<g id="node3" class="node">
<title>AboutKornComponent</title>
<polygon fill="#ffffb3" stroke="black" points="993.6,-84.8 848.4,-84.8 848.4,-48.8 993.6,-48.8 993.6,-84.8"/>
<text text-anchor="middle" x="921" y="-62.6" font-family="Times,serif" font-size="14.00">AboutKornComponent</text>
</g>
<!-- AboutKornComponent&#45;&gt;Tab2PageModule -->
<g id="edge3" class="edge">
<title>AboutKornComponent&#45;&gt;Tab2PageModule</title>
<path fill="none" stroke="black" d="M921,-84.83C921,-101.2 921,-122.8 921,-122.8 921,-122.8 717.8,-122.8 717.8,-122.8"/>
<polygon fill="black" stroke="black" points="717.8,-119.3 707.8,-122.8 717.8,-126.3 717.8,-119.3"/>
</g>
<!-- AboutRibHouseComponent -->
<g id="node4" class="node">
<title>AboutRibHouseComponent</title>
<polygon fill="#ffffb3" stroke="black" points="830.32,-84.8 657.68,-84.8 657.68,-48.8 830.32,-48.8 830.32,-84.8"/>
<text text-anchor="middle" x="744" y="-62.6" font-family="Times,serif" font-size="14.00">AboutRibHouseComponent</text>
</g>
<!-- AboutRibHouseComponent&#45;&gt;Tab2PageModule -->
<g id="edge4" class="edge">
<title>AboutRibHouseComponent&#45;&gt;Tab2PageModule</title>
<path fill="none" stroke="black" d="M682.8,-84.91C682.8,-84.91 682.8,-103.79 682.8,-103.79"/>
<polygon fill="black" stroke="black" points="679.3,-103.79 682.8,-113.79 686.3,-103.79 679.3,-103.79"/>
</g>
<!-- AboutSatchmoComponent -->
<g id="node5" class="node">
<title>AboutSatchmoComponent</title>
<polygon fill="#ffffb3" stroke="black" points="639.82,-84.8 474.18,-84.8 474.18,-48.8 639.82,-48.8 639.82,-84.8"/>
<text text-anchor="middle" x="557" y="-62.6" font-family="Times,serif" font-size="14.00">AboutSatchmoComponent</text>
</g>
<!-- AboutSatchmoComponent&#45;&gt;Tab2PageModule -->
<g id="edge5" class="edge">
<title>AboutSatchmoComponent&#45;&gt;Tab2PageModule</title>
<path fill="none" stroke="black" d="M615.95,-84.91C615.95,-84.91 615.95,-103.79 615.95,-103.79"/>
<polygon fill="black" stroke="black" points="612.45,-103.79 615.95,-113.79 619.45,-103.79 612.45,-103.79"/>
</g>
<!-- AboutVivaldiComponent -->
<g id="node6" class="node">
<title>AboutVivaldiComponent</title>
<polygon fill="#ffffb3" stroke="black" points="456.32,-84.8 297.68,-84.8 297.68,-48.8 456.32,-48.8 456.32,-84.8"/>
<text text-anchor="middle" x="377" y="-62.6" font-family="Times,serif" font-size="14.00">AboutVivaldiComponent</text>
</g>
<!-- AboutVivaldiComponent&#45;&gt;Tab2PageModule -->
<g id="edge6" class="edge">
<title>AboutVivaldiComponent&#45;&gt;Tab2PageModule</title>
<path fill="none" stroke="black" d="M377,-84.83C377,-101.2 377,-122.8 377,-122.8 377,-122.8 582.44,-122.8 582.44,-122.8"/>
<polygon fill="black" stroke="black" points="582.44,-126.3 592.44,-122.8 582.44,-119.3 582.44,-126.3"/>
</g>
<!-- Tab2Page -->
<g id="node7" class="node">
<title>Tab2Page</title>
<polygon fill="#ffffb3" stroke="black" points="279.98,-84.8 208.02,-84.8 208.02,-48.8 279.98,-48.8 279.98,-84.8"/>
<text text-anchor="middle" x="244" y="-62.6" font-family="Times,serif" font-size="14.00">Tab2Page</text>
</g>
<!-- Tab2Page&#45;&gt;Tab2PageModule -->
<g id="edge7" class="edge">
<title>Tab2Page&#45;&gt;Tab2PageModule</title>
<path fill="none" stroke="black" d="M244,-84.91C244,-104.14 244,-131.8 244,-131.8 244,-131.8 582.26,-131.8 582.26,-131.8"/>
<polygon fill="black" stroke="black" points="582.26,-135.3 592.26,-131.8 582.26,-128.3 582.26,-135.3"/>
</g>
<!-- Tab2PageRoutingModule -->
<g id="node9" class="node">
<title>Tab2PageRoutingModule</title>
<polygon fill="#8dd3c7" stroke="black" points="184.15,-84.8 181.15,-88.8 160.15,-88.8 157.15,-84.8 23.85,-84.8 23.85,-48.8 184.15,-48.8 184.15,-84.8"/>
<text text-anchor="middle" x="104" y="-62.6" font-family="Times,serif" font-size="14.00">Tab2PageRoutingModule</text>
</g>
<!-- Tab2PageRoutingModule&#45;&gt;Tab2PageModule -->
<g id="edge8" class="edge">
<title>Tab2PageRoutingModule&#45;&gt;Tab2PageModule</title>
<path fill="none" stroke="black" d="M104,-85.09C104,-107.01 104,-140.8 104,-140.8 104,-140.8 582.34,-140.8 582.34,-140.8"/>
<polygon fill="black" stroke="black" points="582.34,-144.3 592.34,-140.8 582.34,-137.3 582.34,-144.3"/>
</g>
</g>
</svg>
