<?xml version="1.0" encoding="UTF-8" standalone="no"?>
<!DOCTYPE svg PUBLIC "-//W3C//DTD SVG 1.1//EN"
 "http://www.w3.org/Graphics/SVG/1.1/DTD/svg11.dtd">
<!-- Generated by graphviz version 2.47.3 (20210619.1520)
 -->
<!-- Title: dependencies Pages: 1 -->
<svg width="360pt" height="174pt"
 viewBox="0.00 0.00 360.00 173.80" xmlns="http://www.w3.org/2000/svg" xmlns:xlink="http://www.w3.org/1999/xlink">
<g id="graph0" class="graph" transform="scale(1 1) rotate(0) translate(4 169.8)">
<title>dependencies</title>
<polygon fill="white" stroke="transparent" points="-4,4 -4,-169.8 356,-169.8 356,4 -4,4"/>
<text text-anchor="middle" x="176" y="-8.2" font-family="sans-serif" font-size="14.00">dependencies</text>
<g id="clust1" class="cluster">
<title>cluster_StartpagePageModule</title>
<polygon fill="none" stroke="black" stroke-dasharray="1,5" points="8,-32.8 8,-157.8 344,-157.8 344,-32.8 8,-32.8"/>
</g>
<g id="clust2" class="cluster">
<title>cluster_StartpagePageModule_declarations</title>
<polygon fill="none" stroke="black" points="224,-40.8 224,-92.8 336,-92.8 336,-40.8 224,-40.8"/>
</g>
<g id="clust4" class="cluster">
<title>cluster_StartpagePageModule_imports</title>
<polygon fill="none" stroke="black" points="16,-40.8 16,-92.8 216,-92.8 216,-40.8 16,-40.8"/>
</g>
<!-- StartpagePage -->
<g id="node1" class="node">
<title>StartpagePage</title>
<polygon fill="#ffffb3" stroke="black" points="328.08,-84.8 231.92,-84.8 231.92,-48.8 328.08,-48.8 328.08,-84.8"/>
<text text-anchor="middle" x="280" y="-62.6" font-family="Times,serif" font-size="14.00">StartpagePage</text>
</g>
<!-- StartpagePageModule -->
<g id="node2" class="node">
<title>StartpagePageModule</title>
<polygon fill="#8dd3c7" stroke="black" points="260.63,-149.8 257.63,-153.8 236.63,-153.8 233.63,-149.8 121.37,-149.8 121.37,-113.8 260.63,-113.8 260.63,-149.8"/>
<text text-anchor="middle" x="191" y="-127.6" font-family="Times,serif" font-size="14.00">StartpagePageModule</text>
</g>
<!-- StartpagePage&#45;&gt;StartpagePageModule -->
<g id="edge1" class="edge">
<title>StartpagePage&#45;&gt;StartpagePageModule</title>
<path fill="none" stroke="black" d="M246.39,-84.91C246.39,-84.91 246.39,-103.79 246.39,-103.79"/>
<polygon fill="black" stroke="black" points="242.89,-103.79 246.39,-113.79 249.89,-103.79 242.89,-103.79"/>
</g>
<!-- StartpagePageRoutingModule -->
<g id="node3" class="node">
<title>StartpagePageRoutingModule</title>
<polygon fill="#8dd3c7" stroke="black" points="208.25,-84.8 205.25,-88.8 184.25,-88.8 181.25,-84.8 23.75,-84.8 23.75,-48.8 208.25,-48.8 208.25,-84.8"/>
<text text-anchor="middle" x="116" y="-62.6" font-family="Times,serif" font-size="14.00">StartpagePageRoutingModule</text>
</g>
<!-- StartpagePageRoutingModule&#45;&gt;StartpagePageModule -->
<g id="edge2" class="edge">
<title>StartpagePageRoutingModule&#45;&gt;StartpagePageModule</title>
<path fill="none" stroke="black" d="M164.78,-84.91C164.78,-84.91 164.78,-103.79 164.78,-103.79"/>
<polygon fill="black" stroke="black" points="161.28,-103.79 164.78,-113.79 168.28,-103.79 161.28,-103.79"/>
</g>
</g>
</svg>
