<?xml version="1.0" encoding="UTF-8" standalone="no"?>
<!DOCTYPE svg PUBLIC "-//W3C//DTD SVG 1.1//EN"
 "http://www.w3.org/Graphics/SVG/1.1/DTD/svg11.dtd">
<!-- Generated by graphviz version 2.47.3 (20210619.1520)
 -->
<!-- Title: dependencies Pages: 1 -->
<svg width="3277pt" height="247pt"
 viewBox="0.00 0.00 3277.00 246.80" xmlns="http://www.w3.org/2000/svg" xmlns:xlink="http://www.w3.org/1999/xlink">
<g id="graph0" class="graph" transform="scale(1 1) rotate(0) translate(4 242.8)">
<title>dependencies</title>
<polygon fill="white" stroke="transparent" points="-4,4 -4,-242.8 3273,-242.8 3273,4 -4,4"/>
<text text-anchor="middle" x="1634.5" y="-8.2" font-family="sans-serif" font-size="14.00">dependencies</text>
<g id="clust1" class="cluster">
<title>cluster_AppModule</title>
<polygon fill="none" stroke="black" stroke-dasharray="1,5" points="8,-32.8 8,-230.8 447,-230.8 447,-32.8 8,-32.8"/>
</g>
<g id="clust2" class="cluster">
<title>cluster_AppModule_declarations</title>
<polygon fill="none" stroke="black" points="168,-40.8 168,-92.8 439,-92.8 439,-40.8 168,-40.8"/>
</g>
<g id="clust5" class="cluster">
<title>cluster_AppModule_imports</title>
<polygon fill="none" stroke="black" points="16,-40.8 16,-92.8 160,-92.8 160,-40.8 16,-40.8"/>
</g>
<g id="clust7" class="cluster">
<title>cluster_AppModule_bootstrap</title>
<polygon fill="none" stroke="black" points="180,-170.8 180,-222.8 304,-222.8 304,-170.8 180,-170.8"/>
</g>
<g id="clust15" class="cluster">
<title>cluster_ExploreContainerComponentModule</title>
<polygon fill="none" stroke="black" stroke-dasharray="1,5" points="455,-32.8 455,-230.8 695,-230.8 695,-32.8 455,-32.8"/>
</g>
<g id="clust16" class="cluster">
<title>cluster_ExploreContainerComponentModule_declarations</title>
<polygon fill="none" stroke="black" points="477,-40.8 477,-92.8 673,-92.8 673,-40.8 477,-40.8"/>
</g>
<g id="clust19" class="cluster">
<title>cluster_ExploreContainerComponentModule_exports</title>
<polygon fill="none" stroke="black" points="475,-170.8 475,-222.8 675,-222.8 675,-170.8 475,-170.8"/>
</g>
<g id="clust22" class="cluster">
<title>cluster_HomePageModule</title>
<polygon fill="none" stroke="black" stroke-dasharray="1,5" points="703,-32.8 703,-157.8 1003,-157.8 1003,-32.8 703,-32.8"/>
</g>
<g id="clust23" class="cluster">
<title>cluster_HomePageModule_declarations</title>
<polygon fill="none" stroke="black" points="901,-40.8 901,-92.8 995,-92.8 995,-40.8 901,-40.8"/>
</g>
<g id="clust25" class="cluster">
<title>cluster_HomePageModule_imports</title>
<polygon fill="none" stroke="black" points="711,-40.8 711,-92.8 893,-92.8 893,-40.8 711,-40.8"/>
</g>
<g id="clust35" class="cluster">
<title>cluster_Tab1PageModule</title>
<polygon fill="none" stroke="black" stroke-dasharray="1,5" points="1011,-32.8 1011,-157.8 1299,-157.8 1299,-32.8 1011,-32.8"/>
</g>
<g id="clust36" class="cluster">
<title>cluster_Tab1PageModule_declarations</title>
<polygon fill="none" stroke="black" points="1203,-40.8 1203,-92.8 1291,-92.8 1291,-40.8 1203,-40.8"/>
</g>
<g id="clust38" class="cluster">
<title>cluster_Tab1PageModule_imports</title>
<polygon fill="none" stroke="black" points="1019,-40.8 1019,-92.8 1195,-92.8 1195,-40.8 1019,-40.8"/>
</g>
<g id="clust48" class="cluster">
<title>cluster_Tab2PageModule</title>
<polygon fill="none" stroke="black" stroke-dasharray="1,5" points="1307,-32.8 1307,-157.8 2671,-157.8 2671,-32.8 1307,-32.8"/>
</g>
<g id="clust49" class="cluster">
<title>cluster_Tab2PageModule_declarations</title>
<polygon fill="none" stroke="black" points="1499,-40.8 1499,-92.8 2663,-92.8 2663,-40.8 1499,-40.8"/>
</g>
<g id="clust57" class="cluster">
<title>cluster_Tab2PageModule_imports</title>
<polygon fill="none" stroke="black" points="1315,-40.8 1315,-92.8 1491,-92.8 1491,-40.8 1315,-40.8"/>
</g>
<g id="clust67" class="cluster">
<title>cluster_Tab3PageModule</title>
<polygon fill="none" stroke="black" stroke-dasharray="1,5" points="2679,-32.8 2679,-157.8 2967,-157.8 2967,-32.8 2679,-32.8"/>
</g>
<g id="clust68" class="cluster">
<title>cluster_Tab3PageModule_declarations</title>
<polygon fill="none" stroke="black" points="2871,-40.8 2871,-92.8 2959,-92.8 2959,-40.8 2871,-40.8"/>
</g>
<g id="clust70" class="cluster">
<title>cluster_Tab3PageModule_imports</title>
<polygon fill="none" stroke="black" points="2687,-40.8 2687,-92.8 2863,-92.8 2863,-40.8 2687,-40.8"/>
</g>
<g id="clust80" class="cluster">
<title>cluster_TabsPageModule</title>
<polygon fill="none" stroke="black" stroke-dasharray="1,5" points="2975,-32.8 2975,-157.8 3261,-157.8 3261,-32.8 2975,-32.8"/>
</g>
<g id="clust81" class="cluster">
<title>cluster_TabsPageModule_declarations</title>
<polygon fill="none" stroke="black" points="3167,-40.8 3167,-92.8 3253,-92.8 3253,-40.8 3167,-40.8"/>
</g>
<g id="clust83" class="cluster">
<title>cluster_TabsPageModule_imports</title>
<polygon fill="none" stroke="black" points="2983,-40.8 2983,-92.8 3159,-92.8 3159,-40.8 2983,-40.8"/>
</g>
<!-- AppComponent -->
<g id="node1" class="node">
<title>AppComponent</title>
<polygon fill="#ffffb3" stroke="black" points="430.94,-84.8 325.06,-84.8 325.06,-48.8 430.94,-48.8 430.94,-84.8"/>
<text text-anchor="middle" x="378" y="-62.6" font-family="Times,serif" font-size="14.00">AppComponent</text>
</g>
<!-- AppModule -->
<g id="node3" class="node">
<title>AppModule</title>
<polygon fill="#8dd3c7" stroke="black" points="283.66,-149.8 280.66,-153.8 259.66,-153.8 256.66,-149.8 200.34,-149.8 200.34,-113.8 283.66,-113.8 283.66,-149.8"/>
<text text-anchor="middle" x="242" y="-127.6" font-family="Times,serif" font-size="14.00">AppModule</text>
</g>
<!-- AppComponent&#45;&gt;AppModule -->
<g id="edge1" class="edge">
<title>AppComponent&#45;&gt;AppModule</title>
<path fill="none" stroke="black" d="M378,-84.91C378,-104.14 378,-131.8 378,-131.8 378,-131.8 293.91,-131.8 293.91,-131.8"/>
<polygon fill="black" stroke="black" points="293.91,-128.3 283.91,-131.8 293.91,-135.3 293.91,-128.3"/>
</g>
<!-- LocationComponent -->
<g id="node2" class="node">
<title>LocationComponent</title>
<polygon fill="#ffffb3" stroke="black" points="307.6,-84.8 176.4,-84.8 176.4,-48.8 307.6,-48.8 307.6,-84.8"/>
<text text-anchor="middle" x="242" y="-62.6" font-family="Times,serif" font-size="14.00">LocationComponent</text>
</g>
<!-- LocationComponent&#45;&gt;AppModule -->
<g id="edge2" class="edge">
<title>LocationComponent&#45;&gt;AppModule</title>
<path fill="none" stroke="black" d="M242,-84.91C242,-84.91 242,-103.79 242,-103.79"/>
<polygon fill="black" stroke="black" points="238.5,-103.79 242,-113.79 245.5,-103.79 238.5,-103.79"/>
</g>
<!-- AppComponent  -->
<g id="node5" class="node">
<title>AppComponent </title>
<polygon fill="#80b1d3" stroke="black" points="296.44,-214.8 187.56,-214.8 187.56,-178.8 296.44,-178.8 296.44,-214.8"/>
<text text-anchor="middle" x="242" y="-192.6" font-family="Times,serif" font-size="14.00">AppComponent </text>
</g>
<!-- AppModule&#45;&gt;AppComponent  -->
<g id="edge4" class="edge">
<title>AppModule&#45;&gt;AppComponent </title>
<path fill="none" stroke="black" stroke-dasharray="1,5" d="M242,-149.91C242,-149.91 242,-168.79 242,-168.79"/>
<polygon fill="black" stroke="black" points="238.5,-168.79 242,-178.79 245.5,-168.79 238.5,-168.79"/>
</g>
<!-- AppRoutingModule -->
<g id="node4" class="node">
<title>AppRoutingModule</title>
<polygon fill="#8dd3c7" stroke="black" points="152.27,-84.8 149.27,-88.8 128.27,-88.8 125.27,-84.8 23.73,-84.8 23.73,-48.8 152.27,-48.8 152.27,-84.8"/>
<text text-anchor="middle" x="88" y="-62.6" font-family="Times,serif" font-size="14.00">AppRoutingModule</text>
</g>
<!-- AppRoutingModule&#45;&gt;AppModule -->
<g id="edge3" class="edge">
<title>AppRoutingModule&#45;&gt;AppModule</title>
<path fill="none" stroke="black" d="M88,-84.91C88,-104.14 88,-131.8 88,-131.8 88,-131.8 190.33,-131.8 190.33,-131.8"/>
<polygon fill="black" stroke="black" points="190.33,-135.3 200.33,-131.8 190.33,-128.3 190.33,-135.3"/>
</g>
<!-- ExploreContainerComponent -->
<g id="node6" class="node">
<title>ExploreContainerComponent</title>
<polygon fill="#ffffb3" stroke="black" points="665.36,-84.8 484.64,-84.8 484.64,-48.8 665.36,-48.8 665.36,-84.8"/>
<text text-anchor="middle" x="575" y="-62.6" font-family="Times,serif" font-size="14.00">ExploreContainerComponent</text>
</g>
<!-- ExploreContainerComponentModule -->
<g id="node7" class="node">
<title>ExploreContainerComponentModule</title>
<polygon fill="#8dd3c7" stroke="black" points="687.41,-149.8 684.41,-153.8 663.41,-153.8 660.41,-149.8 462.59,-149.8 462.59,-113.8 687.41,-113.8 687.41,-149.8"/>
<text text-anchor="middle" x="575" y="-127.6" font-family="Times,serif" font-size="14.00">ExploreContainerComponentModule</text>
</g>
<!-- ExploreContainerComponent&#45;&gt;ExploreContainerComponentModule -->
<g id="edge5" class="edge">
<title>ExploreContainerComponent&#45;&gt;ExploreContainerComponentModule</title>
<path fill="none" stroke="black" d="M575,-84.91C575,-84.91 575,-103.79 575,-103.79"/>
<polygon fill="black" stroke="black" points="571.5,-103.79 575,-113.79 578.5,-103.79 571.5,-103.79"/>
</g>
<!-- ExploreContainerComponent  -->
<g id="node8" class="node">
<title>ExploreContainerComponent </title>
<polygon fill="#fb8072" stroke="black" points="667.36,-214.8 482.64,-214.8 482.64,-178.8 667.36,-178.8 667.36,-214.8"/>
<text text-anchor="middle" x="575" y="-192.6" font-family="Times,serif" font-size="14.00">ExploreContainerComponent </text>
</g>
<!-- ExploreContainerComponentModule&#45;&gt;ExploreContainerComponent  -->
<g id="edge6" class="edge">
<title>ExploreContainerComponentModule&#45;&gt;ExploreContainerComponent </title>
<path fill="none" stroke="black" stroke-dasharray="5,2" d="M575,-149.91C575,-149.91 575,-168.79 575,-168.79"/>
<polygon fill="black" stroke="black" points="571.5,-168.79 575,-178.79 578.5,-168.79 571.5,-168.79"/>
</g>
<!-- HomePage -->
<g id="node9" class="node">
<title>HomePage</title>
<polygon fill="#ffffb3" stroke="black" points="986.92,-84.8 909.08,-84.8 909.08,-48.8 986.92,-48.8 986.92,-84.8"/>
<text text-anchor="middle" x="948" y="-62.6" font-family="Times,serif" font-size="14.00">HomePage</text>
</g>
<!-- HomePageModule -->
<g id="node10" class="node">
<title>HomePageModule</title>
<polygon fill="#8dd3c7" stroke="black" points="928.47,-149.8 925.47,-153.8 904.47,-153.8 901.47,-149.8 807.53,-149.8 807.53,-113.8 928.47,-113.8 928.47,-149.8"/>
<text text-anchor="middle" x="868" y="-127.6" font-family="Times,serif" font-size="14.00">HomePageModule</text>
</g>
<!-- HomePage&#45;&gt;HomePageModule -->
<g id="edge7" class="edge">
<title>HomePage&#45;&gt;HomePageModule</title>
<path fill="none" stroke="black" d="M918.89,-84.91C918.89,-84.91 918.89,-103.79 918.89,-103.79"/>
<polygon fill="black" stroke="black" points="915.39,-103.79 918.89,-113.79 922.39,-103.79 915.39,-103.79"/>
</g>
<!-- HomePageRoutingModule -->
<g id="node11" class="node">
<title>HomePageRoutingModule</title>
<polygon fill="#8dd3c7" stroke="black" points="885.09,-84.8 882.09,-88.8 861.09,-88.8 858.09,-84.8 718.91,-84.8 718.91,-48.8 885.09,-48.8 885.09,-84.8"/>
<text text-anchor="middle" x="802" y="-62.6" font-family="Times,serif" font-size="14.00">HomePageRoutingModule</text>
</g>
<!-- HomePageRoutingModule&#45;&gt;HomePageModule -->
<g id="edge8" class="edge">
<title>HomePageRoutingModule&#45;&gt;HomePageModule</title>
<path fill="none" stroke="black" d="M846.28,-84.91C846.28,-84.91 846.28,-103.79 846.28,-103.79"/>
<polygon fill="black" stroke="black" points="842.78,-103.79 846.28,-113.79 849.78,-103.79 842.78,-103.79"/>
</g>
<!-- Tab1Page -->
<g id="node12" class="node">
<title>Tab1Page</title>
<polygon fill="#ffffb3" stroke="black" points="1282.98,-84.8 1211.02,-84.8 1211.02,-48.8 1282.98,-48.8 1282.98,-84.8"/>
<text text-anchor="middle" x="1247" y="-62.6" font-family="Times,serif" font-size="14.00">Tab1Page</text>
</g>
<!-- Tab1PageModule -->
<g id="node13" class="node">
<title>Tab1PageModule</title>
<polygon fill="#8dd3c7" stroke="black" points="1227.53,-149.8 1224.53,-153.8 1203.53,-153.8 1200.53,-149.8 1112.47,-149.8 1112.47,-113.8 1227.53,-113.8 1227.53,-149.8"/>
<text text-anchor="middle" x="1170" y="-127.6" font-family="Times,serif" font-size="14.00">Tab1PageModule</text>
</g>
<!-- Tab1Page&#45;&gt;Tab1PageModule -->
<g id="edge9" class="edge">
<title>Tab1Page&#45;&gt;Tab1PageModule</title>
<path fill="none" stroke="black" d="M1219.39,-84.91C1219.39,-84.91 1219.39,-103.79 1219.39,-103.79"/>
<polygon fill="black" stroke="black" points="1215.89,-103.79 1219.39,-113.79 1222.89,-103.79 1215.89,-103.79"/>
</g>
<!-- Tab1PageRoutingModule -->
<g id="node14" class="node">
<title>Tab1PageRoutingModule</title>
<polygon fill="#8dd3c7" stroke="black" points="1187.15,-84.8 1184.15,-88.8 1163.15,-88.8 1160.15,-84.8 1026.85,-84.8 1026.85,-48.8 1187.15,-48.8 1187.15,-84.8"/>
<text text-anchor="middle" x="1107" y="-62.6" font-family="Times,serif" font-size="14.00">Tab1PageRoutingModule</text>
</g>
<!-- Tab1PageRoutingModule&#45;&gt;Tab1PageModule -->
<g id="edge10" class="edge">
<title>Tab1PageRoutingModule&#45;&gt;Tab1PageModule</title>
<path fill="none" stroke="black" d="M1149.78,-84.91C1149.78,-84.91 1149.78,-103.79 1149.78,-103.79"/>
<polygon fill="black" stroke="black" points="1146.28,-103.79 1149.78,-113.79 1153.28,-103.79 1146.28,-103.79"/>
</g>
<!-- AboutC48Component -->
<g id="node15" class="node">
<title>AboutC48Component</title>
<polygon fill="#ffffb3" stroke="black" points="2654.67,-84.8 2515.33,-84.8 2515.33,-48.8 2654.67,-48.8 2654.67,-84.8"/>
<text text-anchor="middle" x="2585" y="-62.6" font-family="Times,serif" font-size="14.00">AboutC48Component</text>
</g>
<!-- Tab2PageModule -->
<g id="node22" class="node">
<title>Tab2PageModule</title>
<polygon fill="#8dd3c7" stroke="black" points="2006.53,-149.8 2003.53,-153.8 1982.53,-153.8 1979.53,-149.8 1891.47,-149.8 1891.47,-113.8 2006.53,-113.8 2006.53,-149.8"/>
<text text-anchor="middle" x="1949" y="-127.6" font-family="Times,serif" font-size="14.00">Tab2PageModule</text>
</g>
<!-- AboutC48Component&#45;&gt;Tab2PageModule -->
<g id="edge11" class="edge">
<title>AboutC48Component&#45;&gt;Tab2PageModule</title>
<path fill="none" stroke="black" d="M2585,-85.09C2585,-107.01 2585,-140.8 2585,-140.8 2585,-140.8 2016.56,-140.8 2016.56,-140.8"/>
<polygon fill="black" stroke="black" points="2016.56,-137.3 2006.56,-140.8 2016.56,-144.3 2016.56,-137.3"/>
</g>
<!-- AboutKaffeKildenComponent -->
<g id="node16" class="node">
<title>AboutKaffeKildenComponent</title>
<polygon fill="#ffffb3" stroke="black" points="2497.29,-84.8 2310.71,-84.8 2310.71,-48.8 2497.29,-48.8 2497.29,-84.8"/>
<text text-anchor="middle" x="2404" y="-62.6" font-family="Times,serif" font-size="14.00">AboutKaffeKildenComponent</text>
</g>
<!-- AboutKaffeKildenComponent&#45;&gt;Tab2PageModule -->
<g id="edge12" class="edge">
<title>AboutKaffeKildenComponent&#45;&gt;Tab2PageModule</title>
<path fill="none" stroke="black" d="M2404,-84.91C2404,-104.14 2404,-131.8 2404,-131.8 2404,-131.8 2016.63,-131.8 2016.63,-131.8"/>
<polygon fill="black" stroke="black" points="2016.63,-128.3 2006.63,-131.8 2016.63,-135.3 2016.63,-128.3"/>
</g>
<!-- AboutKornComponent -->
<g id="node17" class="node">
<title>AboutKornComponent</title>
<polygon fill="#ffffb3" stroke="black" points="2292.6,-84.8 2147.4,-84.8 2147.4,-48.8 2292.6,-48.8 2292.6,-84.8"/>
<text text-anchor="middle" x="2220" y="-62.6" font-family="Times,serif" font-size="14.00">AboutKornComponent</text>
</g>
<!-- AboutKornComponent&#45;&gt;Tab2PageModule -->
<g id="edge13" class="edge">
<title>AboutKornComponent&#45;&gt;Tab2PageModule</title>
<path fill="none" stroke="black" d="M2220,-84.83C2220,-101.2 2220,-122.8 2220,-122.8 2220,-122.8 2016.8,-122.8 2016.8,-122.8"/>
<polygon fill="black" stroke="black" points="2016.8,-119.3 2006.8,-122.8 2016.8,-126.3 2016.8,-119.3"/>
</g>
<!-- AboutRibHouseComponent -->
<g id="node18" class="node">
<title>AboutRibHouseComponent</title>
<polygon fill="#ffffb3" stroke="black" points="2129.32,-84.8 1956.68,-84.8 1956.68,-48.8 2129.32,-48.8 2129.32,-84.8"/>
<text text-anchor="middle" x="2043" y="-62.6" font-family="Times,serif" font-size="14.00">AboutRibHouseComponent</text>
</g>
<!-- AboutRibHouseComponent&#45;&gt;Tab2PageModule -->
<g id="edge14" class="edge">
<title>AboutRibHouseComponent&#45;&gt;Tab2PageModule</title>
<path fill="none" stroke="black" d="M1981.8,-84.91C1981.8,-84.91 1981.8,-103.79 1981.8,-103.79"/>
<polygon fill="black" stroke="black" points="1978.3,-103.79 1981.8,-113.79 1985.3,-103.79 1978.3,-103.79"/>
</g>
<!-- AboutSatchmoComponent -->
<g id="node19" class="node">
<title>AboutSatchmoComponent</title>
<polygon fill="#ffffb3" stroke="black" points="1938.82,-84.8 1773.18,-84.8 1773.18,-48.8 1938.82,-48.8 1938.82,-84.8"/>
<text text-anchor="middle" x="1856" y="-62.6" font-family="Times,serif" font-size="14.00">AboutSatchmoComponent</text>
</g>
<!-- AboutSatchmoComponent&#45;&gt;Tab2PageModule -->
<g id="edge15" class="edge">
<title>AboutSatchmoComponent&#45;&gt;Tab2PageModule</title>
<path fill="none" stroke="black" d="M1914.95,-84.91C1914.95,-84.91 1914.95,-103.79 1914.95,-103.79"/>
<polygon fill="black" stroke="black" points="1911.45,-103.79 1914.95,-113.79 1918.45,-103.79 1911.45,-103.79"/>
</g>
<!-- AboutVivaldiComponent -->
<g id="node20" class="node">
<title>AboutVivaldiComponent</title>
<polygon fill="#ffffb3" stroke="black" points="1755.32,-84.8 1596.68,-84.8 1596.68,-48.8 1755.32,-48.8 1755.32,-84.8"/>
<text text-anchor="middle" x="1676" y="-62.6" font-family="Times,serif" font-size="14.00">AboutVivaldiComponent</text>
</g>
<!-- AboutVivaldiComponent&#45;&gt;Tab2PageModule -->
<g id="edge16" class="edge">
<title>AboutVivaldiComponent&#45;&gt;Tab2PageModule</title>
<path fill="none" stroke="black" d="M1676,-84.83C1676,-101.2 1676,-122.8 1676,-122.8 1676,-122.8 1881.44,-122.8 1881.44,-122.8"/>
<polygon fill="black" stroke="black" points="1881.44,-126.3 1891.44,-122.8 1881.44,-119.3 1881.44,-126.3"/>
</g>
<!-- Tab2Page -->
<g id="node21" class="node">
<title>Tab2Page</title>
<polygon fill="#ffffb3" stroke="black" points="1578.98,-84.8 1507.02,-84.8 1507.02,-48.8 1578.98,-48.8 1578.98,-84.8"/>
<text text-anchor="middle" x="1543" y="-62.6" font-family="Times,serif" font-size="14.00">Tab2Page</text>
</g>
<!-- Tab2Page&#45;&gt;Tab2PageModule -->
<g id="edge17" class="edge">
<title>Tab2Page&#45;&gt;Tab2PageModule</title>
<path fill="none" stroke="black" d="M1543,-84.91C1543,-104.14 1543,-131.8 1543,-131.8 1543,-131.8 1881.26,-131.8 1881.26,-131.8"/>
<polygon fill="black" stroke="black" points="1881.26,-135.3 1891.26,-131.8 1881.26,-128.3 1881.26,-135.3"/>
</g>
<!-- Tab2PageRoutingModule -->
<g id="node23" class="node">
<title>Tab2PageRoutingModule</title>
<polygon fill="#8dd3c7" stroke="black" points="1483.15,-84.8 1480.15,-88.8 1459.15,-88.8 1456.15,-84.8 1322.85,-84.8 1322.85,-48.8 1483.15,-48.8 1483.15,-84.8"/>
<text text-anchor="middle" x="1403" y="-62.6" font-family="Times,serif" font-size="14.00">Tab2PageRoutingModule</text>
</g>
<!-- Tab2PageRoutingModule&#45;&gt;Tab2PageModule -->
<g id="edge18" class="edge">
<title>Tab2PageRoutingModule&#45;&gt;Tab2PageModule</title>
<path fill="none" stroke="black" d="M1403,-85.09C1403,-107.01 1403,-140.8 1403,-140.8 1403,-140.8 1881.34,-140.8 1881.34,-140.8"/>
<polygon fill="black" stroke="black" points="1881.34,-144.3 1891.34,-140.8 1881.34,-137.3 1881.34,-144.3"/>
</g>
<!-- Tab3Page -->
<g id="node24" class="node">
<title>Tab3Page</title>
<polygon fill="#ffffb3" stroke="black" points="2950.98,-84.8 2879.02,-84.8 2879.02,-48.8 2950.98,-48.8 2950.98,-84.8"/>
<text text-anchor="middle" x="2915" y="-62.6" font-family="Times,serif" font-size="14.00">Tab3Page</text>
</g>
<!-- Tab3PageModule -->
<g id="node25" class="node">
<title>Tab3PageModule</title>
<polygon fill="#8dd3c7" stroke="black" points="2895.53,-149.8 2892.53,-153.8 2871.53,-153.8 2868.53,-149.8 2780.47,-149.8 2780.47,-113.8 2895.53,-113.8 2895.53,-149.8"/>
<text text-anchor="middle" x="2838" y="-127.6" font-family="Times,serif" font-size="14.00">Tab3PageModule</text>
</g>
<!-- Tab3Page&#45;&gt;Tab3PageModule -->
<g id="edge19" class="edge">
<title>Tab3Page&#45;&gt;Tab3PageModule</title>
<path fill="none" stroke="black" d="M2887.39,-84.91C2887.39,-84.91 2887.39,-103.79 2887.39,-103.79"/>
<polygon fill="black" stroke="black" points="2883.89,-103.79 2887.39,-113.79 2890.89,-103.79 2883.89,-103.79"/>
</g>
<!-- Tab3PageRoutingModule -->
<g id="node26" class="node">
<title>Tab3PageRoutingModule</title>
<polygon fill="#8dd3c7" stroke="black" points="2855.15,-84.8 2852.15,-88.8 2831.15,-88.8 2828.15,-84.8 2694.85,-84.8 2694.85,-48.8 2855.15,-48.8 2855.15,-84.8"/>
<text text-anchor="middle" x="2775" y="-62.6" font-family="Times,serif" font-size="14.00">Tab3PageRoutingModule</text>
</g>
<!-- Tab3PageRoutingModule&#45;&gt;Tab3PageModule -->
<g id="edge20" class="edge">
<title>Tab3PageRoutingModule&#45;&gt;Tab3PageModule</title>
<path fill="none" stroke="black" d="M2817.78,-84.91C2817.78,-84.91 2817.78,-103.79 2817.78,-103.79"/>
<polygon fill="black" stroke="black" points="2814.28,-103.79 2817.78,-113.79 2821.28,-103.79 2814.28,-103.79"/>
</g>
<!-- TabsPage -->
<g id="node27" class="node">
<title>TabsPage</title>
<polygon fill="#ffffb3" stroke="black" points="3245.42,-84.8 3174.58,-84.8 3174.58,-48.8 3245.42,-48.8 3245.42,-84.8"/>
<text text-anchor="middle" x="3210" y="-62.6" font-family="Times,serif" font-size="14.00">TabsPage</text>
</g>
<!-- TabsPageModule -->
<g id="node28" class="node">
<title>TabsPageModule</title>
<polygon fill="#8dd3c7" stroke="black" points="3189.97,-149.8 3186.97,-153.8 3165.97,-153.8 3162.97,-149.8 3076.03,-149.8 3076.03,-113.8 3189.97,-113.8 3189.97,-149.8"/>
<text text-anchor="middle" x="3133" y="-127.6" font-family="Times,serif" font-size="14.00">TabsPageModule</text>
</g>
<!-- TabsPage&#45;&gt;TabsPageModule -->
<g id="edge21" class="edge">
<title>TabsPage&#45;&gt;TabsPageModule</title>
<path fill="none" stroke="black" d="M3182.39,-84.91C3182.39,-84.91 3182.39,-103.79 3182.39,-103.79"/>
<polygon fill="black" stroke="black" points="3178.89,-103.79 3182.39,-113.79 3185.89,-103.79 3178.89,-103.79"/>
</g>
<!-- TabsPageRoutingModule -->
<g id="node29" class="node">
<title>TabsPageRoutingModule</title>
<polygon fill="#8dd3c7" stroke="black" points="3150.59,-84.8 3147.59,-88.8 3126.59,-88.8 3123.59,-84.8 2991.41,-84.8 2991.41,-48.8 3150.59,-48.8 3150.59,-84.8"/>
<text text-anchor="middle" x="3071" y="-62.6" font-family="Times,serif" font-size="14.00">TabsPageRoutingModule</text>
</g>
<!-- TabsPageRoutingModule&#45;&gt;TabsPageModule -->
<g id="edge22" class="edge">
<title>TabsPageRoutingModule&#45;&gt;TabsPageModule</title>
<path fill="none" stroke="black" d="M3113.28,-84.91C3113.28,-84.91 3113.28,-103.79 3113.28,-103.79"/>
<polygon fill="black" stroke="black" points="3109.78,-103.79 3113.28,-113.79 3116.78,-103.79 3109.78,-103.79"/>
</g>
</g>
</svg>
